<svg xmlns="http://www.w3.org/2000/svg" xmlns:xlink="http://www.w3.org/1999/xlink" width="308" zoomAndPan="magnify" viewBox="0 0 230.87999 231" height="308" preserveAspectRatio="xMidYMid meet" version="1.0"><defs><clipPath id="32b4e7128e"><path d="M 2 2 L 129 2 L 129 129 L 2 129 Z M 2 2 " clip-rule="nonzero"/></clipPath><clipPath id="0c1ac4efbd"><path d="M 0.707031 25.710938 L 26.359375 0.0585938 L 131.082031 104.777344 L 105.425781 130.433594 Z M 0.707031 25.710938 " clip-rule="nonzero"/></clipPath><clipPath id="1742cefa3e"><path d="M 4.152344 22.265625 L 22.914062 3.503906 C 23.828125 2.589844 25.066406 2.074219 26.359375 2.074219 C 27.652344 2.074219 28.890625 2.589844 29.804688 3.503906 L 127.546875 101.246094 C 128.460938 102.160156 128.976562 103.398438 128.976562 104.691406 C 128.976562 105.984375 128.460938 107.222656 127.546875 108.136719 L 108.785156 126.898438 C 107.871094 127.8125 106.632812 128.328125 105.339844 128.328125 C 104.046875 128.328125 102.808594 127.8125 101.894531 126.898438 L 4.152344 29.15625 C 3.238281 28.242188 2.722656 27.003906 2.722656 25.710938 C 2.722656 24.417969 3.238281 23.179688 4.152344 22.265625 Z M 4.152344 22.265625 " clip-rule="nonzero"/></clipPath><clipPath id="d60373ecbd"><path d="M 2 2 L 229 2 L 229 229 L 2 229 Z M 2 2 " clip-rule="nonzero"/></clipPath><clipPath id="66dfc7f6ba"><path d="M 204.625 0.0625 L 230.277344 25.714844 L 25.644531 230.347656 L -0.0078125 204.695312 Z M 204.625 0.0625 " clip-rule="nonzero"/></clipPath><clipPath id="5a43d67a66"><path d="M 208.070312 3.507812 L 226.832031 22.269531 C 227.746094 23.183594 228.261719 24.425781 228.261719 25.714844 C 228.261719 27.007812 227.746094 28.246094 226.832031 29.160156 L 29.097656 226.898438 C 28.183594 227.8125 26.945312 228.324219 25.652344 228.324219 C 24.359375 228.324219 23.121094 227.8125 22.207031 226.898438 L 3.445312 208.132812 C 2.53125 207.21875 2.015625 205.980469 2.015625 204.6875 C 2.015625 203.394531 2.53125 202.15625 3.445312 201.242188 L 201.179688 3.507812 C 202.09375 2.59375 203.332031 2.082031 204.625 2.082031 C 205.917969 2.082031 207.15625 2.59375 208.070312 3.507812 Z M 208.070312 3.507812 " clip-rule="nonzero"/></clipPath><clipPath id="e5aa5c194e"><path d="M 140.15625 97.3125 L 230 97.3125 L 230 220.492188 L 140.15625 220.492188 Z M 140.15625 97.3125 " clip-rule="nonzero"/></clipPath></defs><g clip-path="url(#32b4e7128e)"><g clip-path="url(#0c1ac4efbd)"><g clip-path="url(#1742cefa3e)"><path fill="#212636" d="M 0.707031 25.710938 L 26.359375 0.0585938 L 130.980469 104.679688 L 105.328125 130.332031 Z M 0.707031 25.710938 " fill-opacity="1" fill-rule="nonzero"/></g></g></g><g clip-path="url(#d60373ecbd)"><g clip-path="url(#66dfc7f6ba)"><g clip-path="url(#5a43d67a66)"><path fill="#212636" d="M 204.625 0.0625 L 230.277344 25.714844 L 25.644531 230.347656 L -0.0078125 204.695312 Z M 204.625 0.0625 " fill-opacity="1" fill-rule="nonzero"/></g></g></g><g clip-path="url(#e5aa5c194e)"><path fill="#212636" d="M 185.011719 97.105469 C 183.558594 97.105469 182.105469 97.179688 180.660156 97.324219 C 179.214844 97.46875 177.78125 97.679688 176.355469 97.964844 C 174.929688 98.25 173.523438 98.605469 172.132812 99.027344 C 170.742188 99.449219 169.375 99.941406 168.03125 100.496094 C 166.691406 101.054688 165.378906 101.675781 164.097656 102.359375 C 162.816406 103.046875 161.570312 103.792969 160.363281 104.601562 C 159.15625 105.40625 157.992188 106.273438 156.867188 107.195312 C 155.742188 108.117188 154.667969 109.089844 153.640625 110.121094 C 152.613281 111.148438 151.636719 112.222656 150.714844 113.34375 C 149.792969 114.46875 148.929688 115.632812 148.121094 116.84375 C 147.3125 118.050781 146.566406 119.292969 145.882812 120.574219 C 145.195312 121.855469 144.574219 123.167969 144.019531 124.511719 C 143.460938 125.855469 142.972656 127.21875 142.550781 128.609375 C 142.125 130 141.773438 131.40625 141.488281 132.832031 C 141.203125 134.257812 140.988281 135.695312 140.84375 137.140625 C 140.703125 138.585938 140.628906 140.035156 140.628906 141.488281 C 140.628906 175.410156 181.097656 216.273438 182.820312 217.992188 L 185.011719 220.179688 L 187.199219 217.992188 C 188.921875 216.269531 229.394531 175.40625 229.394531 141.488281 C 229.390625 140.035156 229.320312 138.585938 229.175781 137.140625 C 229.03125 135.695312 228.816406 134.257812 228.53125 132.832031 C 228.246094 131.40625 227.894531 130 227.472656 128.609375 C 227.046875 127.21875 226.558594 125.855469 226 124.511719 C 225.445312 123.167969 224.824219 121.855469 224.136719 120.574219 C 223.453125 119.292969 222.707031 118.050781 221.898438 116.84375 C 221.089844 115.632812 220.226562 114.46875 219.304688 113.34375 C 218.382812 112.222656 217.40625 111.148438 216.378906 110.121094 C 215.351562 109.089844 214.277344 108.117188 213.152344 107.195312 C 212.03125 106.273438 210.863281 105.40625 209.65625 104.601562 C 208.449219 103.792969 207.203125 103.046875 205.921875 102.359375 C 204.640625 101.675781 203.328125 101.054688 201.988281 100.496094 C 200.644531 99.941406 199.277344 99.449219 197.886719 99.027344 C 196.5 98.605469 195.089844 98.25 193.664062 97.964844 C 192.242188 97.679688 190.804688 97.46875 189.359375 97.324219 C 187.914062 97.179688 186.464844 97.105469 185.011719 97.105469 Z M 185.011719 165.226562 C 184.234375 165.226562 183.457031 165.191406 182.683594 165.113281 C 181.910156 165.039062 181.140625 164.921875 180.378906 164.773438 C 179.617188 164.621094 178.863281 164.433594 178.117188 164.207031 C 177.375 163.980469 176.644531 163.71875 175.925781 163.421875 C 175.207031 163.125 174.503906 162.792969 173.820312 162.425781 C 173.132812 162.058594 172.46875 161.660156 171.820312 161.226562 C 171.175781 160.796875 170.550781 160.332031 169.949219 159.839844 C 169.347656 159.347656 168.773438 158.824219 168.222656 158.273438 C 167.671875 157.726562 167.152344 157.148438 166.660156 156.546875 C 166.164062 155.949219 165.703125 155.324219 165.269531 154.675781 C 164.839844 154.03125 164.441406 153.363281 164.074219 152.679688 C 163.707031 151.992188 163.375 151.292969 163.078125 150.574219 C 162.78125 149.855469 162.519531 149.125 162.292969 148.378906 C 162.066406 147.636719 161.878906 146.882812 161.726562 146.121094 C 161.574219 145.355469 161.460938 144.589844 161.382812 143.816406 C 161.308594 143.042969 161.269531 142.265625 161.269531 141.488281 C 161.269531 140.710938 161.308594 139.933594 161.382812 139.160156 C 161.460938 138.386719 161.574219 137.621094 161.726562 136.855469 C 161.878906 136.09375 162.066406 135.339844 162.292969 134.597656 C 162.519531 133.851562 162.78125 133.121094 163.078125 132.402344 C 163.375 131.683594 163.707031 130.984375 164.074219 130.296875 C 164.441406 129.613281 164.839844 128.945312 165.269531 128.300781 C 165.703125 127.652344 166.164062 127.027344 166.660156 126.429688 C 167.152344 125.828125 167.671875 125.25 168.222656 124.703125 C 168.773438 124.152344 169.347656 123.628906 169.949219 123.136719 C 170.550781 122.644531 171.175781 122.179688 171.820312 121.75 C 172.46875 121.316406 173.132812 120.917969 173.820312 120.550781 C 174.503906 120.183594 175.207031 119.851562 175.925781 119.554688 C 176.644531 119.257812 177.375 118.996094 178.117188 118.769531 C 178.863281 118.546875 179.617188 118.355469 180.378906 118.203125 C 181.140625 118.054688 181.910156 117.9375 182.683594 117.863281 C 183.457031 117.785156 184.234375 117.75 185.011719 117.75 C 185.789062 117.75 186.5625 117.785156 187.335938 117.863281 C 188.109375 117.9375 188.878906 118.054688 189.640625 118.203125 C 190.402344 118.355469 191.15625 118.546875 191.902344 118.769531 C 192.644531 118.996094 193.375 119.257812 194.09375 119.554688 C 194.8125 119.851562 195.515625 120.183594 196.199219 120.550781 C 196.886719 120.917969 197.554688 121.316406 198.199219 121.75 C 198.847656 122.179688 199.46875 122.644531 200.070312 123.136719 C 200.671875 123.628906 201.246094 124.152344 201.796875 124.703125 C 202.347656 125.25 202.867188 125.828125 203.359375 126.429688 C 203.855469 127.027344 204.316406 127.652344 204.75 128.300781 C 205.179688 128.945312 205.582031 129.613281 205.945312 130.296875 C 206.3125 130.984375 206.644531 131.683594 206.941406 132.402344 C 207.242188 133.121094 207.503906 133.851562 207.726562 134.597656 C 207.953125 135.339844 208.140625 136.09375 208.292969 136.855469 C 208.445312 137.621094 208.558594 138.386719 208.636719 139.160156 C 208.710938 139.933594 208.75 140.710938 208.75 141.488281 C 208.75 142.265625 208.710938 143.042969 208.632812 143.816406 C 208.554688 144.589844 208.441406 145.355469 208.289062 146.117188 C 208.136719 146.878906 207.949219 147.632812 207.722656 148.375 C 207.496094 149.121094 207.234375 149.851562 206.9375 150.570312 C 206.636719 151.285156 206.304688 151.988281 205.9375 152.675781 C 205.574219 153.359375 205.171875 154.023438 204.742188 154.671875 C 204.308594 155.316406 203.847656 155.941406 203.351562 156.542969 C 202.859375 157.140625 202.339844 157.71875 201.789062 158.265625 C 201.238281 158.816406 200.664062 159.339844 200.0625 159.832031 C 199.460938 160.324219 198.839844 160.789062 198.191406 161.21875 C 197.546875 161.652344 196.882812 162.050781 196.195312 162.417969 C 195.511719 162.785156 194.808594 163.117188 194.089844 163.414062 C 193.371094 163.710938 192.640625 163.972656 191.898438 164.199219 C 191.15625 164.425781 190.402344 164.617188 189.640625 164.769531 C 188.878906 164.921875 188.109375 165.035156 187.335938 165.113281 C 186.5625 165.1875 185.789062 165.226562 185.011719 165.226562 Z M 185.011719 165.226562 " fill-opacity="1" fill-rule="nonzero"/></g></svg>