<svg xmlns="http://www.w3.org/2000/svg" xmlns:xlink="http://www.w3.org/1999/xlink" zoomAndPan="magnify" preserveAspectRatio="xMidYMid meet" version="1.0" viewBox="0.55 41.52 226.25 55"><defs><g/><clipPath id="d0ac4808f1"><path d="M 2 44 L 30 44 L 30 72 L 2 72 Z M 2 44 " clip-rule="nonzero"/></clipPath><clipPath id="5d4ffbd3b5"><path d="M 0.738281 48.488281 L 6.757812 42.46875 L 31.324219 67.039062 L 25.308594 73.058594 Z M 0.738281 48.488281 " clip-rule="nonzero"/></clipPath><clipPath id="3abac8c9a4"><path d="M 3.746094 45.480469 C 5.410156 43.816406 8.105469 43.816406 9.765625 45.480469 L 28.296875 64.007812 C 29.957031 65.671875 29.957031 68.367188 28.296875 70.027344 C 26.632812 71.691406 23.9375 71.691406 22.277344 70.027344 L 3.746094 51.5 C 2.085938 49.835938 2.085938 47.140625 3.746094 45.480469 Z M 3.746094 45.480469 " clip-rule="nonzero"/></clipPath><clipPath id="78e81833be"><path d="M 2 44 L 53 44 L 53 95 L 2 95 Z M 2 44 " clip-rule="nonzero"/></clipPath><clipPath id="60ef9a3781"><path d="M 48.578125 42.472656 L 54.597656 48.492188 L 6.585938 96.503906 L 0.566406 90.484375 Z M 48.578125 42.472656 " clip-rule="nonzero"/></clipPath><clipPath id="6026b2c50b"><path d="M 51.585938 45.484375 C 53.25 47.144531 53.25 49.839844 51.585938 51.503906 L 9.597656 93.492188 C 7.933594 95.152344 5.242188 95.152344 3.578125 93.492188 C 1.917969 91.828125 1.917969 89.132812 3.578125 87.472656 L 45.566406 45.484375 C 47.230469 43.820312 49.925781 43.820312 51.585938 45.484375 Z M 51.585938 45.484375 " clip-rule="nonzero"/></clipPath><clipPath id="f5f13ac7e3"><path d="M 33.453125 65.289062 L 54.339844 65.289062 L 54.339844 94.378906 L 33.453125 94.378906 Z M 33.453125 65.289062 " clip-rule="nonzero"/></clipPath></defs><g clip-path="url(#d0ac4808f1)"><g clip-path="url(#5d4ffbd3b5)"><g clip-path="url(#3abac8c9a4)"><path fill="#000000" d="M 0.738281 48.488281 L 6.757812 42.46875 L 31.300781 67.015625 L 25.285156 73.035156 Z M 0.738281 48.488281 " fill-opacity="1" fill-rule="nonzero"/></g></g></g><g clip-path="url(#78e81833be)"><g clip-path="url(#60ef9a3781)"><g clip-path="url(#6026b2c50b)"><path fill="#000000" d="M 48.578125 42.472656 L 54.597656 48.492188 L 6.585938 96.503906 L 0.566406 90.484375 Z M 48.578125 42.472656 " fill-opacity="1" fill-rule="nonzero"/></g></g></g><g clip-path="url(#f5f13ac7e3)"><path fill="#000000" d="M 43.847656 65.242188 C 43.171875 65.242188 42.503906 65.308594 41.84375 65.445312 C 41.179688 65.578125 40.539062 65.777344 39.914062 66.042969 C 39.289062 66.304688 38.699219 66.628906 38.136719 67.011719 C 37.574219 67.394531 37.054688 67.832031 36.578125 68.316406 C 36.101562 68.804688 35.675781 69.335938 35.300781 69.90625 C 34.925781 70.480469 34.609375 71.085938 34.351562 71.722656 C 34.089844 72.355469 33.894531 73.011719 33.761719 73.6875 C 33.632812 74.363281 33.566406 75.046875 33.5625 75.734375 C 33.5625 83.753906 42.941406 93.417969 43.339844 93.824219 L 43.847656 94.339844 L 44.355469 93.824219 C 44.753906 93.417969 54.132812 83.753906 54.132812 75.734375 C 54.132812 75.046875 54.0625 74.363281 53.933594 73.6875 C 53.800781 73.011719 53.605469 72.355469 53.347656 71.71875 C 53.085938 71.085938 52.769531 70.480469 52.394531 69.90625 C 52.019531 69.335938 51.59375 68.804688 51.117188 68.316406 C 50.640625 67.832031 50.121094 67.394531 49.558594 67.011719 C 48.996094 66.628906 48.40625 66.304688 47.78125 66.042969 C 47.15625 65.777344 46.515625 65.578125 45.851562 65.445312 C 45.191406 65.308594 44.523438 65.242188 43.847656 65.242188 Z M 43.847656 81.347656 C 43.488281 81.347656 43.128906 81.3125 42.773438 81.238281 C 42.421875 81.167969 42.078125 81.0625 41.742188 80.921875 C 41.410156 80.78125 41.09375 80.605469 40.792969 80.402344 C 40.492188 80.199219 40.214844 79.964844 39.957031 79.703125 C 39.703125 79.445312 39.476562 79.160156 39.273438 78.851562 C 39.074219 78.546875 38.902344 78.222656 38.765625 77.882812 C 38.628906 77.542969 38.523438 77.191406 38.453125 76.828125 C 38.382812 76.46875 38.347656 76.101562 38.347656 75.734375 C 38.347656 75.367188 38.382812 75 38.453125 74.640625 C 38.523438 74.277344 38.628906 73.925781 38.765625 73.585938 C 38.902344 73.246094 39.074219 72.921875 39.273438 72.617188 C 39.476562 72.308594 39.703125 72.027344 39.957031 71.765625 C 40.214844 71.503906 40.492188 71.273438 40.792969 71.066406 C 41.09375 70.863281 41.410156 70.691406 41.742188 70.550781 C 42.078125 70.40625 42.421875 70.300781 42.773438 70.230469 C 43.128906 70.15625 43.488281 70.121094 43.847656 70.121094 C 44.207031 70.121094 44.566406 70.15625 44.921875 70.230469 C 45.273438 70.300781 45.617188 70.40625 45.953125 70.550781 C 46.285156 70.691406 46.601562 70.863281 46.902344 71.066406 C 47.203125 71.273438 47.480469 71.503906 47.738281 71.765625 C 47.992188 72.027344 48.222656 72.308594 48.421875 72.617188 C 48.621094 72.921875 48.792969 73.246094 48.929688 73.585938 C 49.066406 73.925781 49.171875 74.277344 49.242188 74.640625 C 49.3125 75 49.347656 75.367188 49.347656 75.734375 C 49.347656 76.101562 49.3125 76.46875 49.242188 76.828125 C 49.171875 77.191406 49.066406 77.542969 48.929688 77.882812 C 48.789062 78.222656 48.621094 78.546875 48.417969 78.851562 C 48.21875 79.160156 47.992188 79.441406 47.734375 79.703125 C 47.480469 79.960938 47.203125 80.195312 46.902344 80.398438 C 46.601562 80.605469 46.285156 80.777344 45.953125 80.917969 C 45.617188 81.058594 45.273438 81.167969 44.921875 81.238281 C 44.566406 81.3125 44.207031 81.347656 43.847656 81.347656 Z M 43.847656 81.347656 " fill-opacity="1" fill-rule="nonzero"/></g><g fill="#000000" fill-opacity="1"><g transform="translate(60.660445, 92.908858)"><g><path d="M 33.6875 -8.1875 L 33.6875 0 L 5.875 0 L 5.875 -50.5 L 32.234375 -50.5 L 32.234375 -42.609375 L 14.921875 -42.609375 L 14.921875 -30.796875 L 28.6875 -30.796875 L 28.6875 -23.109375 L 14.921875 -23.109375 L 14.921875 -8.1875 Z M 33.6875 -8.1875 "/></g></g></g><g fill="#000000" fill-opacity="1"><g transform="translate(97.314049, 92.908858)"><g><path d="M 29.640625 -7.3125 L 11.59375 -7.3125 L 8.90625 0 L -1.234375 0 L 20.140625 -51.375 L 20.859375 -51.375 L 42.3125 0 L 32.453125 0 Z M 26.953125 -14.34375 L 21.65625 -28.109375 L 20.4375 -32.171875 L 19.265625 -28.109375 L 14.203125 -14.34375 Z M 26.953125 -14.34375 "/></g></g></g><g fill="#000000" fill-opacity="1"><g transform="translate(138.386349, 92.908858)"><g><path d="M 48.328125 -51.375 L 48.328125 0 L 39.34375 0 L 39.34375 -21.65625 L 39.671875 -30.21875 L 37.09375 -26.296875 L 27.171875 -14.640625 L 17.25 -26.296875 L 14.671875 -30.21875 L 15.0625 -21.65625 L 15.0625 0 L 6.09375 0 L 6.09375 -51.375 L 6.8125 -51.375 L 27.25 -27.28125 L 47.53125 -51.375 Z M 48.328125 -51.375 "/></g></g></g><g fill="#000000" fill-opacity="1"><g transform="translate(192.787241, 92.908858)"><g><path d="M 18.40625 0.796875 C 16.15625 0.796875 14.035156 0.53125 12.046875 0 C 10.054688 -0.53125 8.3125 -1.21875 6.8125 -2.0625 C 5.3125 -2.90625 4.128906 -3.785156 3.265625 -4.703125 L 6.953125 -12.3125 C 7.503906 -11.59375 8.347656 -10.820312 9.484375 -10 C 10.617188 -9.175781 11.914062 -8.472656 13.375 -7.890625 C 14.84375 -7.316406 16.300781 -7.03125 17.75 -7.03125 C 19.65625 -7.03125 21.253906 -7.550781 22.546875 -8.59375 C 23.835938 -9.644531 24.484375 -11.128906 24.484375 -13.046875 C 24.484375 -14.273438 24.1875 -15.34375 23.59375 -16.25 C 23.007812 -17.15625 22.226562 -17.960938 21.25 -18.671875 C 20.269531 -19.390625 18.765625 -20.363281 16.734375 -21.59375 C 13.960938 -23.28125 11.789062 -24.722656 10.21875 -25.921875 C 8.644531 -27.117188 7.285156 -28.6875 6.140625 -30.625 C 4.992188 -32.570312 4.421875 -34.921875 4.421875 -37.671875 C 4.421875 -40.359375 4.992188 -42.734375 6.140625 -44.796875 C 7.285156 -46.859375 8.976562 -48.46875 11.21875 -49.625 C 13.46875 -50.789062 16.175781 -51.375 19.34375 -51.375 C 24.488281 -51.375 28.785156 -49.800781 32.234375 -46.65625 L 28.1875 -39.265625 C 27.769531 -39.847656 27.148438 -40.484375 26.328125 -41.171875 C 25.515625 -41.859375 24.523438 -42.445312 23.359375 -42.9375 C 22.203125 -43.4375 20.984375 -43.6875 19.703125 -43.6875 C 17.847656 -43.6875 16.40625 -43.148438 15.375 -42.078125 C 14.351562 -41.003906 13.84375 -39.65625 13.84375 -38.03125 C 13.84375 -36.800781 14.148438 -35.707031 14.765625 -34.75 C 15.378906 -33.800781 16.1875 -32.953125 17.1875 -32.203125 C 18.1875 -31.453125 19.535156 -30.570312 21.234375 -29.5625 C 24.296875 -27.75 26.632812 -26.226562 28.25 -25 C 29.875 -23.769531 31.234375 -22.207031 32.328125 -20.3125 C 33.429688 -18.414062 33.984375 -16.085938 33.984375 -13.328125 C 33.984375 -10.410156 33.351562 -7.890625 32.09375 -5.765625 C 30.84375 -3.640625 29.046875 -2.015625 26.703125 -0.890625 C 24.359375 0.234375 21.59375 0.796875 18.40625 0.796875 Z M 18.40625 0.796875 "/></g></g></g></svg>