<svg xmlns="http://www.w3.org/2000/svg" xmlns:xlink="http://www.w3.org/1999/xlink" zoomAndPan="magnify" preserveAspectRatio="xMidYMid meet" version="1.0" viewBox="0.65 64.02 341.68 80.87"><defs><g/><clipPath id="a79079a810"><path d="M 2 66 L 45 66 L 45 108 L 2 108 Z M 2 66 " clip-rule="nonzero"/></clipPath><clipPath id="0a98814555"><path d="M 0.925781 73.023438 L 9.929688 64.019531 L 46.695312 100.78125 L 37.6875 109.785156 Z M 0.925781 73.023438 " clip-rule="nonzero"/></clipPath><clipPath id="9de859f83b"><path d="M 4.355469 69.59375 L 6.5 67.449219 C 7.410156 66.539062 8.644531 66.027344 9.929688 66.027344 C 11.21875 66.027344 12.453125 66.539062 13.363281 67.449219 L 43.234375 97.320312 C 44.140625 98.230469 44.652344 99.460938 44.652344 100.75 C 44.652344 102.035156 44.140625 103.269531 43.234375 104.179688 L 41.089844 106.324219 C 40.179688 107.234375 38.945312 107.746094 37.65625 107.746094 C 36.371094 107.746094 35.136719 107.234375 34.226562 106.324219 L 4.355469 76.453125 C 3.445312 75.542969 2.933594 74.308594 2.933594 73.023438 C 2.933594 71.738281 3.445312 70.503906 4.355469 69.59375 Z M 4.355469 69.59375 " clip-rule="nonzero"/></clipPath><clipPath id="ff35ad83cb"><path d="M 2 66 L 80 66 L 80 143 L 2 143 Z M 2 66 " clip-rule="nonzero"/></clipPath><clipPath id="516b3b82e9"><path d="M 72.511719 64.019531 L 81.515625 73.023438 L 9.679688 144.863281 L 0.675781 135.855469 Z M 72.511719 64.019531 " clip-rule="nonzero"/></clipPath><clipPath id="65bf06ef8c"><path d="M 75.941406 67.449219 L 78.085938 69.59375 C 78.996094 70.503906 79.507812 71.738281 79.507812 73.023438 C 79.507812 74.3125 78.996094 75.546875 78.085938 76.457031 L 13.113281 141.429688 C 12.203125 142.339844 10.96875 142.851562 9.683594 142.851562 C 8.398438 142.851562 7.164062 142.339844 6.253906 141.429688 L 4.109375 139.285156 C 3.199219 138.375 2.6875 137.140625 2.6875 135.851562 C 2.6875 134.566406 3.199219 133.332031 4.109375 132.421875 L 69.082031 67.449219 C 69.992188 66.539062 71.226562 66.027344 72.511719 66.027344 C 73.796875 66.027344 75.03125 66.539062 75.941406 67.449219 Z M 75.941406 67.449219 " clip-rule="nonzero"/></clipPath><clipPath id="579783c1c9"><path d="M 50 98.160156 L 81.433594 98.160156 L 81.433594 141.402344 L 50 141.402344 Z M 50 98.160156 " clip-rule="nonzero"/></clipPath></defs><g clip-path="url(#a79079a810)"><g clip-path="url(#0a98814555)"><g clip-path="url(#9de859f83b)"><path fill="#212636" d="M 0.925781 73.023438 L 9.929688 64.019531 L 46.660156 100.746094 L 37.652344 109.75 Z M 0.925781 73.023438 " fill-opacity="1" fill-rule="nonzero"/></g></g></g><g clip-path="url(#ff35ad83cb)"><g clip-path="url(#516b3b82e9)"><g clip-path="url(#65bf06ef8c)"><path fill="#212636" d="M 72.511719 64.019531 L 81.515625 73.023438 L 9.679688 144.863281 L 0.675781 135.855469 Z M 72.511719 64.019531 " fill-opacity="1" fill-rule="nonzero"/></g></g></g><g clip-path="url(#579783c1c9)"><path fill="#212636" d="M 65.625 98.085938 C 64.601562 98.085938 63.589844 98.1875 62.585938 98.390625 C 61.585938 98.589844 60.609375 98.886719 59.667969 99.277344 C 58.722656 99.667969 57.824219 100.148438 56.972656 100.71875 C 56.125 101.285156 55.335938 101.933594 54.613281 102.65625 C 53.890625 103.378906 53.246094 104.164062 52.675781 105.015625 C 52.109375 105.867188 51.628906 106.761719 51.234375 107.707031 C 50.84375 108.652344 50.546875 109.625 50.347656 110.628906 C 50.148438 111.632812 50.046875 112.644531 50.046875 113.667969 C 50.046875 125.574219 64.253906 139.921875 64.859375 140.523438 L 65.625 141.292969 L 66.394531 140.523438 C 67 139.917969 81.207031 125.574219 81.207031 113.667969 C 81.207031 112.644531 81.105469 111.632812 80.90625 110.628906 C 80.703125 109.625 80.40625 108.652344 80.015625 107.707031 C 79.625 106.761719 79.144531 105.867188 78.574219 105.015625 C 78.007812 104.164062 77.359375 103.378906 76.636719 102.65625 C 75.914062 101.933594 75.128906 101.285156 74.277344 100.71875 C 73.425781 100.148438 72.53125 99.667969 71.585938 99.277344 C 70.640625 98.886719 69.667969 98.589844 68.664062 98.390625 C 67.660156 98.1875 66.648438 98.085938 65.625 98.085938 Z M 65.625 122 C 65.078125 122 64.535156 121.949219 64 121.839844 C 63.464844 121.734375 62.941406 121.578125 62.4375 121.367188 C 61.929688 121.15625 61.449219 120.902344 60.996094 120.597656 C 60.539062 120.292969 60.121094 119.945312 59.734375 119.558594 C 59.347656 119.171875 59 118.753906 58.695312 118.296875 C 58.390625 117.84375 58.136719 117.363281 57.925781 116.855469 C 57.71875 116.351562 57.558594 115.828125 57.453125 115.292969 C 57.34375 114.757812 57.292969 114.214844 57.292969 113.667969 C 57.292969 113.121094 57.34375 112.578125 57.453125 112.042969 C 57.558594 111.503906 57.71875 110.984375 57.925781 110.476562 C 58.136719 109.972656 58.390625 109.492188 58.695312 109.039062 C 59 108.582031 59.347656 108.160156 59.734375 107.773438 C 60.121094 107.386719 60.539062 107.042969 60.996094 106.738281 C 61.449219 106.433594 61.929688 106.175781 62.4375 105.96875 C 62.941406 105.757812 63.464844 105.601562 64 105.492188 C 64.535156 105.386719 65.078125 105.332031 65.625 105.332031 C 66.171875 105.332031 66.714844 105.386719 67.25 105.492188 C 67.789062 105.601562 68.308594 105.757812 68.816406 105.96875 C 69.320312 106.175781 69.800781 106.433594 70.257812 106.738281 C 70.710938 107.042969 71.132812 107.386719 71.519531 107.773438 C 71.90625 108.160156 72.25 108.582031 72.554688 109.039062 C 72.859375 109.492188 73.117188 109.972656 73.324219 110.476562 C 73.535156 110.984375 73.691406 111.503906 73.800781 112.042969 C 73.90625 112.578125 73.960938 113.121094 73.960938 113.667969 C 73.960938 114.214844 73.90625 114.757812 73.796875 115.292969 C 73.691406 115.828125 73.53125 116.351562 73.324219 116.855469 C 73.113281 117.359375 72.855469 117.839844 72.550781 118.296875 C 72.25 118.75 71.902344 119.171875 71.515625 119.558594 C 71.128906 119.945312 70.707031 120.289062 70.253906 120.59375 C 69.800781 120.898438 69.320312 121.15625 68.8125 121.363281 C 68.308594 121.574219 67.789062 121.730469 67.25 121.839844 C 66.714844 121.945312 66.171875 122 65.625 122 Z M 65.625 122 " fill-opacity="1" fill-rule="nonzero"/></g><g fill="#212636" fill-opacity="1"><g transform="translate(90.580178, 142.370272)"><g><path d="M 51.046875 -12.40625 L 51.046875 0 L 8.890625 0 L 8.890625 -76.515625 L 48.859375 -76.515625 L 48.859375 -64.546875 L 22.609375 -64.546875 L 22.609375 -46.65625 L 43.46875 -46.65625 L 43.46875 -35.015625 L 22.609375 -35.015625 L 22.609375 -12.40625 Z M 51.046875 -12.40625 "/></g></g></g><g fill="#212636" fill-opacity="1"><g transform="translate(146.132142, 142.370272)"><g><path d="M 44.90625 -11.09375 L 17.5625 -11.09375 L 13.5 0 L -1.859375 0 L 30.515625 -77.828125 L 31.609375 -77.828125 L 64.109375 0 L 49.1875 0 Z M 40.84375 -21.734375 L 32.828125 -42.59375 L 30.953125 -48.75 L 29.203125 -42.59375 L 21.515625 -21.734375 Z M 40.84375 -21.734375 "/></g></g></g><g fill="#212636" fill-opacity="1"><g transform="translate(208.381079, 142.370272)"><g><path d="M 73.21875 -77.828125 L 73.21875 0 L 59.609375 0 L 59.609375 -32.828125 L 60.109375 -45.78125 L 56.203125 -39.84375 L 41.171875 -22.171875 L 26.125 -39.84375 L 22.234375 -45.78125 L 22.828125 -32.828125 L 22.828125 0 L 9.21875 0 L 9.21875 -77.828125 L 10.3125 -77.828125 L 41.28125 -41.328125 L 72.015625 -77.828125 Z M 73.21875 -77.828125 "/></g></g></g><g fill="#212636" fill-opacity="1"><g transform="translate(290.830731, 142.370272)"><g><path d="M 27.890625 1.203125 C 24.484375 1.203125 21.269531 0.800781 18.25 0 C 15.226562 -0.800781 12.582031 -1.84375 10.3125 -3.125 C 8.050781 -4.40625 6.257812 -5.742188 4.9375 -7.140625 L 10.53125 -18.65625 C 11.375 -17.5625 12.65625 -16.390625 14.375 -15.140625 C 16.101562 -13.898438 18.070312 -12.84375 20.28125 -11.96875 C 22.5 -11.09375 24.703125 -10.65625 26.890625 -10.65625 C 29.785156 -10.65625 32.210938 -11.445312 34.171875 -13.03125 C 36.128906 -14.625 37.109375 -16.867188 37.109375 -19.765625 C 37.109375 -21.628906 36.660156 -23.242188 35.765625 -24.609375 C 34.867188 -25.984375 33.675781 -27.210938 32.1875 -28.296875 C 30.707031 -29.378906 28.429688 -30.851562 25.359375 -32.71875 C 21.148438 -35.28125 17.851562 -37.460938 15.46875 -39.265625 C 13.09375 -41.078125 11.035156 -43.457031 9.296875 -46.40625 C 7.566406 -49.351562 6.703125 -52.914062 6.703125 -57.09375 C 6.703125 -61.144531 7.566406 -64.734375 9.296875 -67.859375 C 11.035156 -70.992188 13.609375 -73.4375 17.015625 -75.1875 C 20.421875 -76.945312 24.519531 -77.828125 29.3125 -77.828125 C 37.101562 -77.828125 43.617188 -75.453125 48.859375 -70.703125 L 42.703125 -59.5 C 42.078125 -60.375 41.144531 -61.332031 39.90625 -62.375 C 38.664062 -63.425781 37.164062 -64.328125 35.40625 -65.078125 C 33.644531 -65.828125 31.796875 -66.203125 29.859375 -66.203125 C 27.046875 -66.203125 24.859375 -65.382812 23.296875 -63.75 C 21.742188 -62.125 20.96875 -60.085938 20.96875 -57.640625 C 20.96875 -55.765625 21.429688 -54.101562 22.359375 -52.65625 C 23.296875 -51.21875 24.523438 -49.929688 26.046875 -48.796875 C 27.566406 -47.660156 29.609375 -46.328125 32.171875 -44.796875 C 36.816406 -42.046875 40.363281 -39.738281 42.8125 -37.875 C 45.269531 -36.007812 47.328125 -33.640625 48.984375 -30.765625 C 50.648438 -27.890625 51.484375 -24.367188 51.484375 -20.203125 C 51.484375 -15.773438 50.53125 -11.945312 48.625 -8.71875 C 46.726562 -5.5 44.003906 -3.039062 40.453125 -1.34375 C 36.898438 0.351562 32.710938 1.203125 27.890625 1.203125 Z M 27.890625 1.203125 "/></g></g></g></svg>