<svg xmlns="http://www.w3.org/2000/svg" xmlns:xlink="http://www.w3.org/1999/xlink" zoomAndPan="magnify" preserveAspectRatio="xMidYMid meet" version="1.0" viewBox="0.55 41.52 226.25 55"><defs><g/><clipPath id="2117422dcb"><path d="M 2 44 L 30 44 L 30 72 L 2 72 Z M 2 44 " clip-rule="nonzero"/></clipPath><clipPath id="08cbaf5ab9"><path d="M 0.738281 48.488281 L 6.757812 42.46875 L 31.324219 67.039062 L 25.308594 73.058594 Z M 0.738281 48.488281 " clip-rule="nonzero"/></clipPath><clipPath id="9e88af0351"><path d="M 3.746094 45.480469 C 5.410156 43.816406 8.105469 43.816406 9.765625 45.480469 L 28.296875 64.007812 C 29.957031 65.671875 29.957031 68.367188 28.296875 70.027344 C 26.632812 71.691406 23.9375 71.691406 22.277344 70.027344 L 3.746094 51.5 C 2.085938 49.835938 2.085938 47.140625 3.746094 45.480469 Z M 3.746094 45.480469 " clip-rule="nonzero"/></clipPath><clipPath id="8754c5ecbe"><path d="M 2 44 L 53 44 L 53 95 L 2 95 Z M 2 44 " clip-rule="nonzero"/></clipPath><clipPath id="507b14dee5"><path d="M 48.578125 42.472656 L 54.597656 48.492188 L 6.585938 96.503906 L 0.566406 90.484375 Z M 48.578125 42.472656 " clip-rule="nonzero"/></clipPath><clipPath id="408fc83918"><path d="M 51.585938 45.484375 C 53.25 47.144531 53.25 49.839844 51.585938 51.503906 L 9.597656 93.492188 C 7.933594 95.152344 5.242188 95.152344 3.578125 93.492188 C 1.917969 91.828125 1.917969 89.132812 3.578125 87.472656 L 45.566406 45.484375 C 47.230469 43.820312 49.925781 43.820312 51.585938 45.484375 Z M 51.585938 45.484375 " clip-rule="nonzero"/></clipPath><clipPath id="ba65b545c3"><path d="M 33.453125 65.289062 L 54.339844 65.289062 L 54.339844 94.378906 L 33.453125 94.378906 Z M 33.453125 65.289062 " clip-rule="nonzero"/></clipPath></defs><g clip-path="url(#2117422dcb)"><g clip-path="url(#08cbaf5ab9)"><g clip-path="url(#9e88af0351)"><path fill="#ffcc00" d="M 0.738281 48.488281 L 6.757812 42.46875 L 31.300781 67.015625 L 25.285156 73.035156 Z M 0.738281 48.488281 " fill-opacity="1" fill-rule="nonzero"/></g></g></g><g clip-path="url(#8754c5ecbe)"><g clip-path="url(#507b14dee5)"><g clip-path="url(#408fc83918)"><path fill="#ffcc00" d="M 48.578125 42.472656 L 54.597656 48.492188 L 6.585938 96.503906 L 0.566406 90.484375 Z M 48.578125 42.472656 " fill-opacity="1" fill-rule="nonzero"/></g></g></g><g clip-path="url(#ba65b545c3)"><path fill="#404040" d="M 43.976562 65.242188 C 43.292969 65.242188 42.617188 65.308594 41.945312 65.441406 C 41.273438 65.578125 40.625 65.773438 39.992188 66.035156 C 39.363281 66.296875 38.761719 66.621094 38.195312 67 C 37.625 67.378906 37.101562 67.808594 36.617188 68.292969 C 36.132812 68.777344 35.703125 69.300781 35.324219 69.871094 C 34.945312 70.4375 34.621094 71.039062 34.359375 71.667969 C 34.097656 72.300781 33.902344 72.949219 33.765625 73.621094 C 33.632812 74.292969 33.566406 74.96875 33.566406 75.652344 C 33.566406 83.605469 43.058594 93.191406 43.460938 93.59375 L 43.976562 94.109375 L 44.488281 93.59375 C 44.894531 93.191406 54.386719 83.605469 54.386719 75.652344 C 54.386719 74.96875 54.316406 74.292969 54.183594 73.621094 C 54.050781 72.949219 53.851562 72.300781 53.589844 71.667969 C 53.328125 71.039062 53.007812 70.4375 52.628906 69.871094 C 52.246094 69.300781 51.816406 68.777344 51.332031 68.292969 C 50.851562 67.808594 50.324219 67.378906 49.757812 67 C 49.1875 66.621094 48.589844 66.296875 47.957031 66.035156 C 47.328125 65.773438 46.675781 65.578125 46.003906 65.441406 C 45.335938 65.308594 44.660156 65.242188 43.976562 65.242188 Z M 43.976562 81.21875 C 43.609375 81.21875 43.246094 81.183594 42.890625 81.113281 C 42.53125 81.042969 42.183594 80.933594 41.84375 80.796875 C 41.507812 80.65625 41.1875 80.484375 40.882812 80.28125 C 40.578125 80.078125 40.296875 79.847656 40.039062 79.589844 C 39.78125 79.328125 39.546875 79.046875 39.34375 78.746094 C 39.140625 78.441406 38.972656 78.121094 38.832031 77.78125 C 38.691406 77.445312 38.585938 77.097656 38.515625 76.738281 C 38.441406 76.378906 38.40625 76.015625 38.40625 75.652344 C 38.40625 75.285156 38.441406 74.921875 38.515625 74.566406 C 38.585938 74.207031 38.691406 73.859375 38.832031 73.519531 C 38.972656 73.183594 39.140625 72.863281 39.34375 72.558594 C 39.546875 72.253906 39.78125 71.972656 40.039062 71.714844 C 40.296875 71.457031 40.578125 71.222656 40.882812 71.019531 C 41.1875 70.816406 41.507812 70.648438 41.84375 70.507812 C 42.183594 70.367188 42.53125 70.261719 42.890625 70.191406 C 43.246094 70.117188 43.609375 70.082031 43.976562 70.082031 C 44.339844 70.082031 44.703125 70.117188 45.0625 70.191406 C 45.421875 70.261719 45.769531 70.367188 46.105469 70.507812 C 46.445312 70.648438 46.765625 70.816406 47.070312 71.019531 C 47.371094 71.222656 47.652344 71.457031 47.914062 71.714844 C 48.171875 71.972656 48.402344 72.253906 48.605469 72.558594 C 48.808594 72.863281 48.980469 73.183594 49.121094 73.519531 C 49.257812 73.859375 49.367188 74.207031 49.4375 74.566406 C 49.507812 74.921875 49.542969 75.285156 49.542969 75.652344 C 49.542969 76.015625 49.507812 76.378906 49.4375 76.738281 C 49.363281 77.09375 49.257812 77.445312 49.117188 77.78125 C 48.976562 78.117188 48.804688 78.4375 48.601562 78.742188 C 48.398438 79.046875 48.167969 79.328125 47.910156 79.585938 C 47.652344 79.84375 47.371094 80.074219 47.066406 80.277344 C 46.761719 80.480469 46.441406 80.652344 46.105469 80.792969 C 45.769531 80.933594 45.417969 81.039062 45.0625 81.113281 C 44.703125 81.183594 44.339844 81.21875 43.976562 81.21875 Z M 43.976562 81.21875 " fill-opacity="1" fill-rule="nonzero"/></g><g fill="#04061f" fill-opacity="1"><g transform="translate(60.660445, 92.908858)"><g><path d="M 33.6875 -8.1875 L 33.6875 0 L 5.875 0 L 5.875 -50.5 L 32.234375 -50.5 L 32.234375 -42.609375 L 14.921875 -42.609375 L 14.921875 -30.796875 L 28.6875 -30.796875 L 28.6875 -23.109375 L 14.921875 -23.109375 L 14.921875 -8.1875 Z M 33.6875 -8.1875 "/></g></g></g><g fill="#04061f" fill-opacity="1"><g transform="translate(97.314049, 92.908858)"><g><path d="M 29.640625 -7.3125 L 11.59375 -7.3125 L 8.90625 0 L -1.234375 0 L 20.140625 -51.375 L 20.859375 -51.375 L 42.3125 0 L 32.453125 0 Z M 26.953125 -14.34375 L 21.65625 -28.109375 L 20.4375 -32.171875 L 19.265625 -28.109375 L 14.203125 -14.34375 Z M 26.953125 -14.34375 "/></g></g></g><g fill="#04061f" fill-opacity="1"><g transform="translate(138.386349, 92.908858)"><g><path d="M 48.328125 -51.375 L 48.328125 0 L 39.34375 0 L 39.34375 -21.65625 L 39.671875 -30.21875 L 37.09375 -26.296875 L 27.171875 -14.640625 L 17.25 -26.296875 L 14.671875 -30.21875 L 15.0625 -21.65625 L 15.0625 0 L 6.09375 0 L 6.09375 -51.375 L 6.8125 -51.375 L 27.25 -27.28125 L 47.53125 -51.375 Z M 48.328125 -51.375 "/></g></g></g><g fill="#04061f" fill-opacity="1"><g transform="translate(192.787241, 92.908858)"><g><path d="M 18.40625 0.796875 C 16.15625 0.796875 14.035156 0.53125 12.046875 0 C 10.054688 -0.53125 8.3125 -1.21875 6.8125 -2.0625 C 5.3125 -2.90625 4.128906 -3.785156 3.265625 -4.703125 L 6.953125 -12.3125 C 7.503906 -11.59375 8.347656 -10.820312 9.484375 -10 C 10.617188 -9.175781 11.914062 -8.472656 13.375 -7.890625 C 14.84375 -7.316406 16.300781 -7.03125 17.75 -7.03125 C 19.65625 -7.03125 21.253906 -7.550781 22.546875 -8.59375 C 23.835938 -9.644531 24.484375 -11.128906 24.484375 -13.046875 C 24.484375 -14.273438 24.1875 -15.34375 23.59375 -16.25 C 23.007812 -17.15625 22.226562 -17.960938 21.25 -18.671875 C 20.269531 -19.390625 18.765625 -20.363281 16.734375 -21.59375 C 13.960938 -23.28125 11.789062 -24.722656 10.21875 -25.921875 C 8.644531 -27.117188 7.285156 -28.6875 6.140625 -30.625 C 4.992188 -32.570312 4.421875 -34.921875 4.421875 -37.671875 C 4.421875 -40.359375 4.992188 -42.734375 6.140625 -44.796875 C 7.285156 -46.859375 8.976562 -48.46875 11.21875 -49.625 C 13.46875 -50.789062 16.175781 -51.375 19.34375 -51.375 C 24.488281 -51.375 28.785156 -49.800781 32.234375 -46.65625 L 28.1875 -39.265625 C 27.769531 -39.847656 27.148438 -40.484375 26.328125 -41.171875 C 25.515625 -41.859375 24.523438 -42.445312 23.359375 -42.9375 C 22.203125 -43.4375 20.984375 -43.6875 19.703125 -43.6875 C 17.847656 -43.6875 16.40625 -43.148438 15.375 -42.078125 C 14.351562 -41.003906 13.84375 -39.65625 13.84375 -38.03125 C 13.84375 -36.800781 14.148438 -35.707031 14.765625 -34.75 C 15.378906 -33.800781 16.1875 -32.953125 17.1875 -32.203125 C 18.1875 -31.453125 19.535156 -30.570312 21.234375 -29.5625 C 24.296875 -27.75 26.632812 -26.226562 28.25 -25 C 29.875 -23.769531 31.234375 -22.207031 32.328125 -20.3125 C 33.429688 -18.414062 33.984375 -16.085938 33.984375 -13.328125 C 33.984375 -10.410156 33.351562 -7.890625 32.09375 -5.765625 C 30.84375 -3.640625 29.046875 -2.015625 26.703125 -0.890625 C 24.359375 0.234375 21.59375 0.796875 18.40625 0.796875 Z M 18.40625 0.796875 "/></g></g></g></svg>