<svg xmlns="http://www.w3.org/2000/svg" xmlns:xlink="http://www.w3.org/1999/xlink" width="308" zoomAndPan="magnify" viewBox="0 0 230.87999 231" height="308" preserveAspectRatio="xMidYMid meet" version="1.0"><defs><clipPath id="6a0dc8cb96"><path d="M 21 76 L 211 76 L 211 154.679688 L 21 154.679688 Z M 21 76 " clip-rule="nonzero"/></clipPath></defs><g clip-path="url(#6a0dc8cb96)"><path fill="#000000" d="M 21.757812 108.535156 C 25.136719 89.730469 41.386719 76.082031 60.40625 76.082031 C 62.742188 76.082031 65.097656 76.296875 67.433594 76.71875 C 82.886719 79.523438 95.273438 91.464844 98.769531 106.722656 L 201.730469 106.722656 C 206.570312 106.722656 210.511719 110.675781 210.511719 115.535156 C 210.511719 120.394531 206.574219 124.367188 201.730469 124.367188 L 198.035156 124.367188 L 198.035156 143.828125 C 198.035156 145.027344 197.046875 146.027344 195.84375 146.027344 L 182.445312 146.027344 C 181.238281 146.027344 180.253906 145.027344 180.253906 143.828125 L 180.253906 141.738281 L 173.675781 141.738281 L 173.675781 143.828125 C 173.675781 145.027344 172.695312 146.027344 171.484375 146.027344 L 158.089844 146.027344 C 156.882812 146.027344 155.898438 145.027344 155.898438 143.828125 L 155.898438 124.367188 L 98.757812 124.367188 C 94.691406 142.230469 78.878906 155.007812 60.488281 155.007812 C 58.152344 155.007812 55.792969 154.792969 53.460938 154.367188 C 43.136719 152.488281 34.136719 146.699219 28.160156 138.046875 C 22.171875 129.378906 19.902344 118.90625 21.757812 108.535156 Z M 60.449219 134.644531 C 70.949219 134.644531 79.492188 126.085938 79.492188 115.535156 C 79.492188 105.003906 70.960938 96.433594 60.449219 96.433594 C 49.949219 96.433594 41.414062 105.003906 41.414062 115.535156 C 41.421875 126.078125 49.960938 134.644531 60.449219 134.644531 Z M 60.449219 134.644531 " fill-opacity="1" fill-rule="nonzero"/></g></svg>