<svg xmlns="http://www.w3.org/2000/svg" xmlns:xlink="http://www.w3.org/1999/xlink" width="308" zoomAndPan="magnify" viewBox="0 0 230.87999 231" height="308" preserveAspectRatio="xMidYMid meet" version="1.0"><defs><clipPath id="fd1ca262ad"><path d="M 139 117 L 218.882812 117 L 218.882812 172 L 139 172 Z M 139 117 " clip-rule="nonzero"/></clipPath><clipPath id="f41cfbed71"><path d="M 11.242188 117 L 91 117 L 91 172 L 11.242188 172 Z M 11.242188 117 " clip-rule="nonzero"/></clipPath><clipPath id="6fccec9d83"><path d="M 55 124 L 175 124 L 175 187.765625 L 55 187.765625 Z M 55 124 " clip-rule="nonzero"/></clipPath><clipPath id="f6bd2c3567"><path d="M 77 42.339844 L 153 42.339844 L 153 119 L 77 119 Z M 77 42.339844 " clip-rule="nonzero"/></clipPath></defs><path fill="#212636" d="M 174.367188 169.867188 L 217.613281 169.867188 C 212.460938 130.058594 192.566406 119.257812 168.796875 119.257812 C 158.417969 119.257812 148.78125 121.320312 140.78125 126.949219 C 157.5 133.566406 168.617188 147.785156 174.367188 169.867188 " fill-opacity="1" fill-rule="nonzero"/><g clip-path="url(#fd1ca262ad)"><path fill="#212636" d="M 174.367188 169.867188 L 174.367188 171.257812 L 217.613281 171.257812 C 218.015625 171.257812 218.390625 171.089844 218.65625 170.785156 C 218.921875 170.484375 219.042969 170.089844 218.992188 169.691406 C 217.691406 159.632812 215.453125 151.363281 212.421875 144.597656 C 207.882812 134.453125 201.523438 127.699219 194 123.558594 C 186.480469 119.414062 177.863281 117.867188 168.796875 117.867188 C 163.515625 117.867188 158.394531 118.394531 153.546875 119.648438 C 148.703125 120.902344 144.128906 122.894531 139.980469 125.8125 C 139.5625 126.105469 139.339844 126.605469 139.402344 127.113281 C 139.460938 127.621094 139.792969 128.054688 140.269531 128.242188 C 148.40625 131.464844 155.144531 136.507812 160.589844 143.464844 C 166.039062 150.421875 170.183594 159.316406 173.023438 170.21875 C 173.183594 170.832031 173.738281 171.257812 174.367188 171.257812 L 174.367188 169.867188 L 175.714844 169.519531 C 172.800781 158.335938 168.511719 149.078125 162.78125 141.753906 C 157.050781 134.425781 149.871094 129.050781 141.292969 125.65625 L 140.78125 126.949219 L 141.582031 128.085938 C 145.429688 125.378906 149.675781 123.523438 154.246094 122.339844 C 158.8125 121.15625 163.699219 120.648438 168.796875 120.648438 C 174.632812 120.648438 180.195312 121.3125 185.316406 122.894531 C 193 125.28125 199.699219 129.6875 205.035156 137.167969 C 210.371094 144.652344 214.320312 155.273438 216.234375 170.046875 L 217.613281 169.867188 L 217.613281 168.480469 L 174.367188 168.480469 L 174.367188 169.867188 L 175.714844 169.519531 L 174.367188 169.867188 " fill-opacity="1" fill-rule="nonzero"/></g><path fill="#212636" d="M 168.796875 50.203125 C 161.117188 50.203125 154.128906 53.050781 148.765625 57.71875 C 153.15625 64.15625 155.730469 71.925781 155.730469 80.285156 C 155.730469 88.902344 152.980469 96.867188 148.339844 103.414062 C 153.757812 108.308594 160.917969 111.3125 168.796875 111.3125 C 185.664062 111.3125 199.351562 97.628906 199.351562 80.761719 C 199.351562 63.882812 185.664062 50.203125 168.796875 50.203125 " fill-opacity="1" fill-rule="nonzero"/><path fill="#212636" d="M 168.796875 50.203125 L 168.796875 48.8125 C 160.769531 48.8125 153.457031 51.792969 147.851562 56.671875 C 147.320312 57.132812 147.21875 57.921875 147.617188 58.503906 C 151.859375 64.71875 154.339844 72.210938 154.339844 80.285156 C 154.339844 88.605469 151.6875 96.285156 147.207031 102.609375 C 146.796875 103.183594 146.886719 103.972656 147.410156 104.445312 C 153.066406 109.558594 160.5625 112.703125 168.796875 112.703125 C 186.433594 112.699219 200.742188 98.398438 200.742188 80.761719 C 200.742188 63.117188 186.433594 48.816406 168.796875 48.8125 L 168.796875 51.59375 C 176.851562 51.59375 184.132812 54.855469 189.417969 60.136719 C 194.699219 65.417969 197.960938 72.703125 197.960938 80.761719 C 197.960938 88.816406 194.699219 96.097656 189.417969 101.378906 C 184.132812 106.660156 176.851562 109.921875 168.796875 109.921875 C 161.277344 109.921875 154.449219 107.058594 149.269531 102.382812 L 148.339844 103.414062 L 149.476562 104.214844 C 154.269531 97.453125 157.121094 89.199219 157.121094 80.285156 C 157.121094 71.636719 154.457031 63.589844 149.914062 56.9375 L 148.765625 57.71875 L 149.675781 58.769531 C 154.808594 54.308594 161.464844 51.59375 168.796875 51.59375 L 168.796875 50.203125 " fill-opacity="1" fill-rule="nonzero"/><path fill="#212636" d="M 55.90625 169.867188 L 12.664062 169.867188 C 17.816406 130.058594 37.710938 119.257812 61.484375 119.257812 C 71.859375 119.257812 81.5 121.320312 89.496094 126.949219 C 72.777344 133.566406 61.664062 147.785156 55.90625 169.867188 " fill-opacity="1" fill-rule="nonzero"/><g clip-path="url(#f41cfbed71)"><path fill="#212636" d="M 55.90625 169.867188 L 55.90625 168.480469 L 12.664062 168.480469 L 12.664062 169.867188 L 14.042969 170.046875 C 15.316406 160.199219 17.5 152.191406 20.390625 145.734375 C 24.738281 136.050781 30.640625 129.847656 37.617188 125.992188 C 44.597656 122.144531 52.71875 120.648438 61.484375 120.648438 C 66.578125 120.648438 71.46875 121.15625 76.035156 122.339844 C 80.601562 123.523438 84.847656 125.378906 88.699219 128.085938 L 89.496094 126.949219 L 88.984375 125.65625 C 80.40625 129.050781 73.222656 134.425781 67.496094 141.753906 C 61.761719 149.078125 57.476562 158.335938 54.5625 169.519531 L 55.90625 169.867188 L 55.90625 168.480469 L 55.90625 169.867188 L 57.25 170.21875 C 60.09375 159.316406 64.242188 150.421875 69.683594 143.464844 C 75.132812 136.507812 81.867188 131.464844 90.007812 128.242188 C 90.480469 128.054688 90.816406 127.621094 90.878906 127.113281 C 90.9375 126.605469 90.710938 126.105469 90.296875 125.8125 C 86.144531 122.894531 81.574219 120.902344 76.730469 119.648438 C 71.882812 118.394531 66.761719 117.867188 61.484375 117.867188 C 55.433594 117.867188 49.59375 118.554688 44.140625 120.242188 C 35.957031 122.761719 28.648438 127.578125 22.976562 135.554688 C 17.296875 143.53125 13.238281 154.609375 11.285156 169.691406 C 11.234375 170.089844 11.355469 170.484375 11.621094 170.785156 C 11.886719 171.089844 12.261719 171.257812 12.664062 171.257812 L 55.90625 171.257812 C 56.539062 171.257812 57.089844 170.832031 57.25 170.21875 L 55.90625 169.867188 " fill-opacity="1" fill-rule="nonzero"/></g><path fill="#212636" d="M 61.484375 50.203125 C 69.15625 50.203125 76.144531 53.050781 81.511719 57.71875 C 77.121094 64.15625 74.546875 71.925781 74.546875 80.285156 C 74.546875 88.902344 77.300781 96.867188 81.9375 103.414062 C 76.515625 108.308594 69.359375 111.3125 61.484375 111.3125 C 44.613281 111.3125 30.925781 97.628906 30.925781 80.761719 C 30.925781 63.882812 44.613281 50.203125 61.484375 50.203125 " fill-opacity="1" fill-rule="nonzero"/><path fill="#212636" d="M 61.484375 50.203125 L 61.484375 51.59375 C 68.808594 51.59375 75.46875 54.308594 80.601562 58.769531 L 81.511719 57.71875 L 80.363281 56.9375 C 75.820312 63.589844 73.15625 71.636719 73.15625 80.285156 C 73.15625 89.203125 76.007812 97.453125 80.800781 104.214844 L 81.9375 103.414062 L 81.003906 102.382812 C 75.824219 107.058594 69.003906 109.921875 61.484375 109.921875 C 53.425781 109.921875 46.140625 106.660156 40.859375 101.378906 C 35.578125 96.097656 32.3125 88.816406 32.3125 80.761719 C 32.3125 72.703125 35.578125 65.417969 40.859375 60.136719 C 46.140625 54.855469 53.425781 51.59375 61.484375 51.59375 L 61.484375 48.8125 C 43.84375 48.816406 29.535156 63.117188 29.535156 80.761719 C 29.535156 98.398438 43.84375 112.699219 61.484375 112.703125 C 69.714844 112.703125 77.210938 109.558594 82.867188 104.445312 C 83.390625 103.972656 83.476562 103.183594 83.070312 102.609375 C 78.589844 96.285156 75.9375 88.605469 75.9375 80.285156 C 75.9375 72.210938 78.421875 64.71875 82.660156 58.503906 C 83.058594 57.921875 82.957031 57.132812 82.425781 56.671875 C 76.820312 51.792969 69.503906 48.8125 61.484375 48.8125 L 61.484375 50.203125 " fill-opacity="1" fill-rule="nonzero"/><path fill="#212636" d="M 173.40625 186.652344 C 167.261719 139.132812 143.511719 126.242188 115.140625 126.242188 C 86.761719 126.242188 63.015625 139.132812 56.867188 186.652344 L 173.40625 186.652344 " fill-opacity="1" fill-rule="nonzero"/><g clip-path="url(#6fccec9d83)"><path fill="#212636" d="M 173.40625 186.652344 L 174.785156 186.472656 C 173.238281 174.488281 170.570312 164.640625 166.96875 156.597656 C 161.570312 144.53125 154.023438 136.523438 145.09375 131.609375 C 136.167969 126.6875 125.929688 124.855469 115.140625 124.855469 C 107.9375 124.855469 100.996094 125.667969 94.515625 127.671875 C 84.796875 130.664062 76.128906 136.375 69.390625 145.847656 C 62.648438 155.320312 57.816406 168.496094 55.488281 186.472656 C 55.4375 186.871094 55.558594 187.265625 55.824219 187.570312 C 56.089844 187.871094 56.464844 188.042969 56.867188 188.042969 L 173.40625 188.042969 C 173.8125 188.042969 174.1875 187.871094 174.453125 187.570312 C 174.71875 187.265625 174.839844 186.871094 174.785156 186.472656 L 173.40625 186.652344 L 173.40625 185.261719 L 56.867188 185.261719 L 56.867188 186.652344 L 58.246094 186.828125 C 59.769531 175.054688 62.378906 165.472656 65.84375 157.734375 C 71.050781 146.125 78.140625 138.671875 86.519531 134.042969 C 94.902344 129.417969 104.648438 127.632812 115.140625 127.632812 C 122.128906 127.632812 128.792969 128.429688 134.9375 130.328125 C 144.15625 133.183594 152.214844 138.480469 158.617188 147.460938 C 165.015625 156.441406 169.746094 169.164062 172.03125 186.828125 L 173.40625 186.652344 L 173.40625 185.261719 L 173.40625 186.652344 " fill-opacity="1" fill-rule="nonzero"/></g><path fill="#212636" d="M 151.609375 80.285156 C 151.609375 100.429688 135.277344 116.757812 115.140625 116.757812 C 94.992188 116.757812 78.667969 100.429688 78.667969 80.285156 C 78.667969 60.144531 94.992188 43.816406 115.140625 43.816406 C 135.277344 43.816406 151.609375 60.144531 151.609375 80.285156 " fill-opacity="1" fill-rule="nonzero"/><g clip-path="url(#f6bd2c3567)"><path fill="#212636" d="M 151.609375 80.285156 L 150.21875 80.285156 C 150.21875 89.976562 146.292969 98.742188 139.945312 105.09375 C 133.589844 111.441406 124.828125 115.367188 115.140625 115.367188 C 105.445312 115.367188 96.683594 111.441406 90.332031 105.09375 C 83.980469 98.742188 80.058594 89.976562 80.058594 80.285156 C 80.058594 70.59375 83.980469 61.832031 90.332031 55.480469 C 96.683594 49.128906 105.445312 45.210938 115.140625 45.207031 C 124.828125 45.207031 133.589844 49.128906 139.945312 55.480469 C 146.292969 61.835938 150.21875 70.59375 150.21875 80.285156 L 153 80.285156 C 153 59.375 136.046875 42.429688 115.140625 42.425781 C 94.226562 42.429688 77.277344 59.375 77.277344 80.285156 C 77.277344 101.199219 94.226562 118.148438 115.140625 118.148438 C 136.046875 118.148438 153 101.199219 153 80.285156 L 151.609375 80.285156 " fill-opacity="1" fill-rule="nonzero"/></g></svg>