<svg xmlns="http://www.w3.org/2000/svg" xmlns:xlink="http://www.w3.org/1999/xlink" width="308" zoomAndPan="magnify" viewBox="0 0 230.87999 231" height="308" preserveAspectRatio="xMidYMid meet" version="1.0"><defs><filter x="0%" y="0%" width="100%" height="100%" id="28d2ae25df"><feColorMatrix values="0 0 0 0 1 0 0 0 0 1 0 0 0 0 1 0 0 0 1 0" color-interpolation-filters="sRGB"/></filter><mask id="fda10ac1f5"><g filter="url(#28d2ae25df)"><rect x="-23.087999" width="277.055988" fill="#000000" y="-23.1" height="277.2" fill-opacity="0.4"/></g></mask><clipPath id="a3dbe21f95"><rect x="0" width="116" y="0" height="116"/></clipPath><clipPath id="b94018d88b"><path d="M 63.679688 18.9375 L 165.988281 18.9375 L 165.988281 120.847656 L 63.679688 120.847656 Z M 63.679688 18.9375 " clip-rule="nonzero"/></clipPath><clipPath id="f2e6c4e2ec"><path d="M 114.667969 18.9375 C 86.507812 18.9375 63.679688 41.75 63.679688 69.890625 C 63.679688 98.035156 86.507812 120.847656 114.667969 120.847656 C 142.828125 120.847656 165.660156 98.035156 165.660156 69.890625 C 165.660156 41.75 142.828125 18.9375 114.667969 18.9375 Z M 114.667969 18.9375 " clip-rule="nonzero"/></clipPath></defs><path fill="#212636" d="M 115.105469 145.65625 C 73.722656 145.65625 38.375 152.179688 38.375 178.277344 C 38.375 204.382812 73.503906 211.140625 115.105469 211.140625 C 156.488281 211.140625 191.832031 204.625 191.832031 178.515625 C 191.832031 152.410156 156.714844 145.65625 115.105469 145.65625 " fill-opacity="1" fill-rule="nonzero"/><g mask="url(#fda10ac1f5)"><g transform="matrix(1, 0, 0, 1, 57, 9)"><g clip-path="url(#a3dbe21f95)"><path fill="#212636" d="M 58.105469 111.796875 C 86.292969 111.796875 108.878906 89.203125 108.878906 61.023438 C 108.878906 32.84375 86.292969 10.246094 58.105469 10.246094 C 29.925781 10.246094 7.332031 32.84375 7.332031 61.023438 C 7.332031 89.203125 29.925781 111.796875 58.105469 111.796875 " fill-opacity="1" fill-rule="nonzero"/></g></g></g><g clip-path="url(#b94018d88b)"><g clip-path="url(#f2e6c4e2ec)"><path fill="#212636" d="M 63.679688 18.9375 L 165.589844 18.9375 L 165.589844 120.847656 L 63.679688 120.847656 Z M 63.679688 18.9375 " fill-opacity="1" fill-rule="nonzero"/></g></g></svg>